<?xml version="1.0" encoding="utf-8"?>
<!-- Generator: Adobe Illustrator 26.0.2, SVG Export Plug-In . SVG Version: 6.00 Build 0)  -->
<svg version="1.1" id="Layer_1" xmlns="http://www.w3.org/2000/svg" xmlns:xlink="http://www.w3.org/1999/xlink" x="0px" y="0px"
	 viewBox="0 0 152 34" style="enable-background:new 0 0 152 34;" xml:space="preserve">
<style type="text/css">
	.st0{fill:#435EBE;}
	.st1{fill-rule:evenodd;clip-rule:evenodd;fill:#41BBDD;}
	.st2{display:none;fill:#435EBE;}
	.st3{fill:none;}
	.st4{font-family:'MicrosoftYaHei-Bold';}
	.st5{font-size:24px;}
</style>
<path class="st0" d="M0,27.5C0,31.9,6.2,33,13.5,33c7.3,0,13.5-1.1,13.5-5.5S20.8,22,13.5,22C6.2,22,0,23.1,0,27.5z"/>
<circle class="st1" cx="13.5" cy="8.8" r="8.8"/>
<path class="st2" d="M71.7,3.2c0.7,0,1.3,0.2,1.7,0.7c0.4,0.4,0.6,1,0.6,1.7v22.5c0,0.7-0.2,1.3-0.6,1.7s-0.9,0.6-1.6,0.6
	s-1.2-0.2-1.6-0.6s-0.6-1-0.6-1.7V12.5l-6.5,12.2c-0.3,0.6-0.6,1-1,1.3c-0.4,0.3-0.8,0.4-1.3,0.4s-0.9-0.1-1.3-0.4s-0.7-0.7-1-1.3
	l-6.5-12v15.5c0,0.7-0.2,1.2-0.6,1.7c-0.4,0.4-0.9,0.6-1.6,0.6s-1.2-0.2-1.6-0.6s-0.6-1-0.6-1.7V5.7c0-0.7,0.2-1.3,0.6-1.7
	c0.4-0.5,1-0.7,1.7-0.7c1,0,1.8,0.5,2.3,1.6L61,20.9l8.4-16.1C70,3.8,70.7,3.2,71.7,3.2z M87.5,11.2c2.6,0,4.5,0.6,5.7,1.9
	c1.3,1.3,1.9,3.2,1.9,5.8v9.3c0,0.7-0.2,1.2-0.6,1.6c-0.4,0.4-1,0.6-1.7,0.6c-0.7,0-1.2-0.2-1.6-0.6c-0.4-0.4-0.6-0.9-0.6-1.6v-0.8
	c-0.4,1-1.1,1.8-2.1,2.3c-0.9,0.6-2,0.8-3.2,0.8c-1.2,0-2.4-0.3-3.4-0.8s-1.8-1.2-2.4-2.1s-0.9-1.9-0.9-3c0-1.4,0.3-2.4,1-3.2
	c0.7-0.8,1.8-1.4,3.4-1.7s3.7-0.5,6.5-0.5h0.9v-0.9c0-1.2-0.3-2.1-0.8-2.7c-0.5-0.6-1.4-0.9-2.6-0.9c-0.8,0-1.5,0.1-2.2,0.3
	c-0.8,0.2-1.7,0.5-2.7,0.9c-0.7,0.3-1.1,0.5-1.4,0.5c-0.5,0-0.8-0.2-1.1-0.5c-0.3-0.3-0.4-0.8-0.4-1.3c0-0.4,0.1-0.8,0.3-1.1
	c0.2-0.3,0.6-0.6,1.1-0.9c0.9-0.5,1.9-0.9,3.2-1.1C85.1,11.3,86.3,11.2,87.5,11.2z M86.3,27.1c1.3,0,2.3-0.4,3.1-1.3
	c0.8-0.9,1.2-2,1.2-3.3v-0.8h-0.7c-1.7,0-3,0.1-4,0.2s-1.6,0.4-2,0.8s-0.6,0.9-0.6,1.6c0,0.8,0.3,1.5,0.8,2
	C84.8,26.8,85.5,27.1,86.3,27.1z M113.8,26.6c1.4,0,2.1,0.6,2.1,1.8c0,0.6-0.2,1-0.5,1.3c-0.4,0.3-0.9,0.5-1.6,0.5h-12.7
	c-0.6,0-1.2-0.2-1.6-0.6c-0.4-0.4-0.6-0.9-0.6-1.4c0-0.6,0.2-1.1,0.7-1.7l9.8-11.3h-8.5c-0.7,0-1.2-0.2-1.6-0.5s-0.5-0.7-0.5-1.3
	s0.2-1,0.5-1.3s0.9-0.5,1.6-0.5h12.3c0.7,0,1.2,0.2,1.6,0.6c0.4,0.4,0.6,0.9,0.6,1.4c0,0.6-0.2,1.2-0.6,1.7l-9.8,11.3
	C104.9,26.6,113.8,26.6,113.8,26.6z M133.5,25.1c0.4,0,0.8,0.2,1,0.5c0.3,0.3,0.4,0.8,0.4,1.3c0,0.8-0.5,1.4-1.4,2
	c-0.9,0.5-1.8,0.9-2.9,1.2c-1.1,0.3-2.1,0.4-3.1,0.4c-3,0-5.4-0.9-7.1-2.6s-2.6-4.1-2.6-7.1c0-1.9,0.4-3.6,1.1-5.1s1.8-2.6,3.2-3.4
	c1.4-0.8,3-1.2,4.7-1.2c1.7,0,3.1,0.4,4.4,1.1s2.2,1.8,2.9,3.1s1,2.9,1,4.7c0,1.1-0.5,1.6-1.4,1.6h-11.2c0.2,1.7,0.6,3,1.5,3.9
	c0.8,0.8,2.1,1.2,3.6,1.2c0.8,0,1.5-0.1,2.1-0.3c0.6-0.2,1.3-0.5,2.1-0.8C132.6,25.3,133.2,25.1,133.5,25.1z M127,14.5
	c-1.3,0-2.3,0.4-3.1,1.2c-0.8,0.8-1.2,2-1.4,3.5h8.6c-0.1-1.5-0.4-2.7-1.1-3.5C129.2,14.9,128.2,14.5,127,14.5z M149.4,11.2
	c0.7-0.1,1.2,0.1,1.6,0.4s0.6,0.8,0.6,1.5c0,0.7-0.2,1.2-0.5,1.5s-0.9,0.5-1.8,0.6l-1.1,0.1c-1.5,0.2-2.6,0.7-3.3,1.5
	c-0.7,0.9-1,1.9-1,3.2v8c0,0.7-0.2,1.3-0.7,1.7c-0.5,0.4-1,0.6-1.7,0.6s-1.3-0.2-1.7-0.6c-0.4-0.4-0.6-1-0.6-1.7V13.4
	c0-0.7,0.2-1.3,0.6-1.6c0.5-0.4,1-0.6,1.7-0.6s1.2,0.2,1.6,0.6c0.4,0.4,0.6,0.9,0.6,1.6v1.5c0.5-1.1,1.2-2,2.1-2.6
	c1-0.6,2-0.9,3.2-1L149.4,11.2L149.4,11.2z"/>
<rect x="42.1" y="6" class="st3" width="109.9" height="34"/>
<text transform="matrix(1 0 0 1 42.1064 25.1836)" class="st0 st4 st5">Certifly</text>
</svg>
